<?xml version="1.0" encoding="utf-8"?>
<svg xmlns="http://www.w3.org/2000/svg" viewBox="0 0 100 100" width="500" height="500">
  <path fill="#c7ede6" d="M87.215,56.71C88.35,54.555,89,52.105,89,49.5c0-6.621-4.159-12.257-10.001-14.478 C78.999,35.015,79,35.008,79,35c0-11.598-9.402-21-21-21c-9.784,0-17.981,6.701-20.313,15.757C36.211,29.272,34.638,29,33,29 c-7.692,0-14.023,5.793-14.89,13.252C12.906,43.353,9,47.969,9,53.5C9,59.851,14.149,65,20.5,65c0.177,0,0.352-0.012,0.526-0.022 C21.022,65.153,21,65.324,21,65.5C21,76.822,30.178,86,41.5,86c6.437,0,12.175-2.972,15.934-7.614C59.612,80.611,62.64,82,66,82 c4.65,0,8.674-2.65,10.666-6.518C77.718,75.817,78.837,76,80,76c6.075,0,11-4.925,11-11C91,61.689,89.53,58.727,87.215,56.71z" />
  <path fill="#fff" d="M15.405,57H5.5C5.224,57,5,56.776,5,56.5S5.224,56,5.5,56h9.905c0.276,0,0.5,0.224,0.5,0.5 S15.682,57,15.405,57z" />
  <path fill="#fff" d="M18.5,57h-1c-0.276,0-0.5-0.224-0.5-0.5s0.224-0.5,0.5-0.5h1c0.276,0,0.5,0.224,0.5,0.5 S18.777,57,18.5,57z" />
  <path fill="#fff" d="M23.491,59H14.5c-0.276,0-0.5-0.224-0.5-0.5s0.224-0.5,0.5-0.5h8.991c0.276,0,0.5,0.224,0.5,0.5 S23.767,59,23.491,59z" />
  <path fill="#fff" d="M12.5,59h-1c-0.276,0-0.5-0.224-0.5-0.5s0.224-0.5,0.5-0.5h1c0.276,0,0.5,0.224,0.5,0.5 S12.777,59,12.5,59z" />
  <path fill="#fff" d="M9.5,59h-2C7.224,59,7,58.776,7,58.5S7.224,58,7.5,58h2c0.276,0,0.5,0.224,0.5,0.5S9.777,59,9.5,59 z" />
  <path fill="#fff" d="M15.5,61h-2c-0.276,0-0.5-0.224-0.5-0.5s0.224-0.5,0.5-0.5h2c0.276,0,0.5,0.224,0.5,0.5 S15.776,61,15.5,61z" />
  <path fill="#fff" d="M18.5,52c-0.177,0-0.823,0-1,0c-0.276,0-0.5,0.224-0.5,0.5c0,0.276,0.224,0.5,0.5,0.5 c0.177,0,0.823,0,1,0c0.276,0,0.5-0.224,0.5-0.5C19,52.224,18.776,52,18.5,52z" />
  <path fill="#fff" d="M18.5,54c-0.177,0-4.823,0-5,0c-0.276,0-0.5,0.224-0.5,0.5c0,0.276,0.224,0.5,0.5,0.5 c0.177,0,4.823,0,5,0c0.276,0,0.5-0.224,0.5-0.5C19,54.224,18.776,54,18.5,54z" />
  <path fill="#fff" d="M23.5,56c-0.177,0-2.823,0-3,0c-0.276,0-0.5,0.224-0.5,0.5c0,0.276,0.224,0.5,0.5,0.5 c0.177,0,2.823,0,3,0c0.276,0,0.5-0.224,0.5-0.5C24,56.224,23.776,56,23.5,56z" />
  <path fill="#fff" d="M67.5,20h-10c-0.276,0-0.5-0.224-0.5-0.5s0.224-0.5,0.5-0.5h10c0.276,0,0.5,0.224,0.5,0.5 S67.776,20,67.5,20z" />
  <path fill="#fff" d="M71.5,20h-2c-0.276,0-0.5-0.224-0.5-0.5s0.224-0.5,0.5-0.5h2c0.276,0,0.5,0.224,0.5,0.5 S71.776,20,71.5,20z" />
  <path fill="#fff" d="M76.5,22h-10c-0.276,0-0.5-0.224-0.5-0.5s0.224-0.5,0.5-0.5h10c0.276,0,0.5,0.224,0.5,0.5 S76.777,22,76.5,22z" />
  <path fill="#fff" d="M64.5,22h-1c-0.276,0-0.5-0.224-0.5-0.5s0.224-0.5,0.5-0.5h1c0.276,0,0.5,0.224,0.5,0.5 S64.776,22,64.5,22z" />
  <path fill="#fff" d="M61.375,22H59.5c-0.276,0-0.5-0.224-0.5-0.5s0.224-0.5,0.5-0.5h1.875c0.276,0,0.5,0.224,0.5,0.5 S61.651,22,61.375,22z" />
  <path fill="#fff" d="M70.5,18h-5c-0.276,0-0.5-0.224-0.5-0.5s0.224-0.5,0.5-0.5h5c0.276,0,0.5,0.224,0.5,0.5 S70.777,18,70.5,18z" />
  <path fill="#fff" d="M67.5,24h-2c-0.276,0-0.5-0.224-0.5-0.5s0.224-0.5,0.5-0.5h2c0.276,0,0.5,0.224,0.5,0.5 S67.776,24,67.5,24z" />
  <path fill="#fdfcef" d="M34.875,39.5c0,0,3.64,0,6.125,0s4.5-2.015,4.5-4.5c0-2.333-1.782-4.229-4.055-4.455 C41.467,30.364,41.5,30.187,41.5,30c0-2.485-2.015-4.5-4.5-4.5c-1.438,0-2.703,0.686-3.527,1.736 C33.333,24.6,31.171,22.5,28.5,22.5c-2.761,0-5,2.239-5,5c0,0.446,0.077,0.87,0.187,1.282C23.045,28.005,22.086,27.5,21,27.5 c-1.781,0-3.234,1.335-3.455,3.055C17.364,30.533,17.187,30.5,17,30.5c-2.485,0-4.5,2.015-4.5,4.5s2.015,4.5,4.5,4.5s9.5,0,9.5,0 h5.375V40h3V39.5z" />
  <path fill="#472b29" d="M28.5,22c-3.033,0-5.5,2.467-5.5,5.5c0,0.016,0,0.031,0,0.047C22.398,27.192,21.71,27,21,27 c-1.831,0-3.411,1.261-3.858,3.005C17.095,30.002,17.048,30,17,30c-2.757,0-5,2.243-5,5s2.243,5,5,5h14.875 c0.276,0,0.5-0.224,0.5-0.5s-0.224-0.5-0.5-0.5H17c-2.206,0-4-1.794-4-4s1.794-4,4-4c0.117,0,0.23,0.017,0.343,0.032l0.141,0.019 c0.021,0.003,0.041,0.004,0.062,0.004c0.246,0,0.462-0.185,0.495-0.437C18.232,29.125,19.504,28,21,28 c0.885,0,1.723,0.401,2.301,1.1c0.098,0.118,0.241,0.182,0.386,0.182c0.078,0,0.156-0.018,0.228-0.056 c0.209-0.107,0.314-0.346,0.254-0.573C24.054,28.218,24,27.852,24,27.5c0-2.481,2.019-4.5,4.5-4.5 c2.381,0,4.347,1.872,4.474,4.263c0.011,0.208,0.15,0.387,0.349,0.45c0.05,0.016,0.101,0.024,0.152,0.024 c0.15,0,0.296-0.069,0.392-0.192C34.638,26.563,35.779,26,37,26c2.206,0,4,1.794,4,4c0,0.117-0.017,0.23-0.032,0.343l-0.019,0.141 c-0.016,0.134,0.022,0.268,0.106,0.373c0.084,0.105,0.207,0.172,0.34,0.185C43.451,31.247,45,32.949,45,35c0,2.206-1.794,4-4,4 h-6.125c-0.276,0-0.5,0.224-0.5,0.5s0.224,0.5,0.5,0.5H41c2.757,0,5-2.243,5-5c0-2.397-1.689-4.413-4.003-4.877 C41.999,30.082,42,30.041,42,30c0-2.757-2.243-5-5-5c-1.176,0-2.293,0.416-3.183,1.164C33.219,23.76,31.055,22,28.5,22L28.5,22z" />
  <path fill="#472b29" d="M27,29c-1.403,0-2.609,0.999-2.913,2.341C23.72,31.119,23.301,31,22.875,31 c-1.202,0-2.198,0.897-2.353,2.068C20.319,33.022,20.126,33,19.937,33c-1.529,0-2.811,1.2-2.918,2.732 C17.01,35.87,17.114,35.99,17.251,36c0.006,0,0.012,0,0.018,0c0.13,0,0.24-0.101,0.249-0.232c0.089-1.271,1.151-2.268,2.419-2.268 c0.229,0,0.47,0.042,0.738,0.127c0.022,0.007,0.045,0.01,0.067,0.01c0.055,0,0.11-0.02,0.156-0.054 C20.962,33.537,21,33.455,21,33.375c0-1.034,0.841-1.875,1.875-1.875c0.447,0,0.885,0.168,1.231,0.473 c0.047,0.041,0.106,0.063,0.165,0.063c0.032,0,0.063-0.006,0.093-0.019c0.088-0.035,0.148-0.117,0.155-0.212 C24.623,30.512,25.712,29.5,27,29.5c0.208,0,0.425,0.034,0.682,0.107c0.023,0.007,0.047,0.01,0.07,0.01 c0.109,0,0.207-0.073,0.239-0.182c0.038-0.133-0.039-0.271-0.172-0.309C27.517,29.04,27.256,29,27,29L27,29z" />
  <path fill="#472b29" d="M40.883,30.5c-1.326,0-2.508,0.897-2.874,2.182c-0.038,0.133,0.039,0.271,0.172,0.309 C38.205,32.997,38.228,33,38.25,33c0.109,0,0.209-0.072,0.24-0.182C38.795,31.748,39.779,31,40.883,31 c0.117,0,0.23,0.014,0.342,0.029c0.012,0.002,0.023,0.003,0.035,0.003c0.121,0,0.229-0.092,0.246-0.217 c0.019-0.137-0.077-0.263-0.214-0.281C41.158,30.516,41.022,30.5,40.883,30.5L40.883,30.5z" />
  <g>
    <path fill="#472b29" d="M37.5,66h-4.293C29.233,66,26,62.767,26,58.793V50.5c0-0.276,0.224-0.5,0.5-0.5s0.5,0.224,0.5,0.5 v8.293C27,62.216,29.784,65,33.207,65H37.5c0.276,0,0.5,0.224,0.5,0.5S37.776,66,37.5,66z" />
  </g>
  <g>
    <path fill="#a2b3cb" d="M43.728,73.3l-1.162-11h-8.522c-2.054,0-4.343-1.367-4.343-3.33v-9.055 c0-2.39,1.88-3.995,4.678-3.995c2.199,0,3.922,1.755,3.922,3.995V57.7h6.133c1.34,0,2.867,1.391,2.867,2.61V73.3H43.728z" />
    <path fill="#472b29" d="M34.378,46.619c1.807,0,3.222,1.447,3.222,3.295V57v1.4H39h5.433c0.952,0,2.167,1.072,2.167,1.911 V72.6h-2.243l-1.03-9.747L43.195,61.6h-1.26h-7.893c-1.72,0-3.643-1.125-3.643-2.631v-9.055 C30.4,47.913,31.961,46.619,34.378,46.619 M34.378,45.219C31,45.219,29,47.322,29,49.915c0,0,0,7.543,0,9.055 C29,61.377,31.635,63,34.043,63c0.759,0,5.389,0,7.893,0l1.162,11H48c0,0,0-13.491,0-13.689C48,58.644,46.1,57,44.433,57 c-0.37,0-3.356,0-5.433,0c0-2.656,0-7.085,0-7.085C39,47.322,36.971,45.219,34.378,45.219L34.378,45.219z" />
  </g>
  <g>
    <circle cx="34.391" cy="39.5" r="3.8" fill="#f6cca4" />
    <path fill="#472b29" d="M34.39,36.4c1.709,0,3.1,1.391,3.1,3.1s-1.391,3.1-3.1,3.1s-3.1-1.391-3.1-3.1 S32.681,36.4,34.39,36.4 M34.39,35c-2.485,0-4.5,2.015-4.5,4.5s2.015,4.5,4.5,4.5c2.485,0,4.5-2.015,4.5-4.5S36.875,35,34.39,35 L34.39,35z" />
  </g>
  <g>
    <circle cx="53.391" cy="35.5" r="3.8" fill="#f6cca4" />
    <path fill="#472b29" d="M53.39,32.4c1.709,0,3.1,1.391,3.1,3.1s-1.391,3.1-3.1,3.1s-3.1-1.391-3.1-3.1 S51.681,32.4,53.39,32.4 M53.39,31c-2.485,0-4.5,2.015-4.5,4.5s2.015,4.5,4.5,4.5c2.485,0,4.5-2.015,4.5-4.5S55.875,31,53.39,31 L53.39,31z" />
  </g>
  <g>
    <path fill="#8889b9" d="M47.7,52.568v-5.435c0-2.996,2.602-5.434,5.8-5.434s5.8,2.438,5.8,5.434v5.435H47.7z" />
    <path fill="#472b29" d="M53.5,42.4c2.812,0,5.1,2.124,5.1,4.734v4.734H48.4v-4.734C48.4,44.524,50.688,42.4,53.5,42.4 M53.5,41c-3.59,0-6.5,2.746-6.5,6.134c0,3.388,0,6.134,0,6.134h13c0,0,0-5.065,0-6.134C60,43.746,57.09,41,53.5,41L53.5,41z" />
  </g>
  <g>
    <path fill="#472b29" d="M50.5,50c-0.276,0-0.5-0.224-0.5-0.5v-2.416c0-1.692,1.271-3.084,2.955-3.236 c0.271-0.019,0.518,0.177,0.543,0.453c0.024,0.274-0.178,0.518-0.453,0.543C51.879,44.949,51,45.912,51,47.084V49.5 C51,49.776,50.776,50,50.5,50z" />
  </g>
  <g>
    <path fill="#472b29" d="M39.5,58h-2.296C35.438,58,34,56.572,34,54.817V52.5c0-0.276,0.224-0.5,0.5-0.5s0.5,0.224,0.5,0.5 v2.317C35,56.021,35.988,57,37.204,57H39.5c0.276,0,0.5,0.224,0.5,0.5S39.776,58,39.5,58z" />
  </g>
  <g>
    <path fill="#472b29" d="M34.5,51c-0.276,0-0.5-0.224-0.5-0.5V49c0-0.276,0.224-0.5,0.5-0.5S35,48.724,35,49v1.5 C35,50.776,34.776,51,34.5,51z" />
  </g>
  <g>
    <path fill="#472b29" d="M72.793,66H68.5c-0.276,0-0.5-0.224-0.5-0.5s0.224-0.5,0.5-0.5h4.293C76.216,65,79,62.216,79,58.793 V50.5c0-0.276,0.224-0.5,0.5-0.5s0.5,0.224,0.5,0.5v8.293C80,62.767,76.767,66,72.793,66z" />
  </g>
  <g>
    <path fill="#a2b3cb" d="M58.7,73.3V60.567c0-1.581,1.286-2.867,2.867-2.867H67.7v-7.785c0-2.203,1.759-3.995,3.922-3.995 c2.798,0,4.678,1.605,4.678,3.995v8.042c0,2.395-1.948,4.343-4.343,4.343h-8.522l-1.162,11H58.7z" />
    <path fill="#472b29" d="M71.622,46.62L71.622,46.62c2.416,0,3.978,1.294,3.978,3.295v8.043 c0,2.009-1.634,3.643-3.643,3.643h-7.893h-1.26l-0.132,1.253l-1.03,9.747H59.4V60.567c0-1.195,0.972-2.167,2.167-2.167H67h1.4V57 v-7.085c0-0.875,0.338-1.702,0.951-2.329C69.961,46.963,70.767,46.619,71.622,46.62 M71.622,45.22 c-2.562,0-4.622,2.133-4.622,4.695c0,0,0,4.429,0,7.085h-5.433C59.605,57,58,58.605,58,60.567V74h4.902l1.162-11h7.893 C74.731,63,77,60.731,77,57.957v-8.043C77,47.322,75,45.22,71.622,45.22L71.622,45.22z" />
  </g>
  <g>
    <circle cx="72.109" cy="39.5" r="3.8" fill="#f6cca4" />
    <path fill="#472b29" d="M72.11,36.4c1.709,0,3.1,1.391,3.1,3.1s-1.391,3.1-3.1,3.1s-3.1-1.391-3.1-3.1 S70.4,36.4,72.11,36.4 M72.11,35c-2.485,0-4.5,2.015-4.5,4.5s2.015,4.5,4.5,4.5c2.485,0,4.5-2.015,4.5-4.5S74.595,35,72.11,35 L72.11,35z" />
  </g>
  <g>
    <path fill="#472b29" d="M68.796,58H66.5c-0.276,0-0.5-0.224-0.5-0.5s0.224-0.5,0.5-0.5h2.296C70.012,57,71,56.021,71,54.817 V52.5c0-0.276,0.224-0.5,0.5-0.5s0.5,0.224,0.5,0.5v2.317C72,56.572,70.563,58,68.796,58z" />
  </g>
  <g>
    <path fill="#472b29" d="M71.5,51c-0.276,0-0.5-0.224-0.5-0.5v-1c0-0.276,0.224-0.5,0.5-0.5s0.5,0.224,0.5,0.5v1 C72,50.776,71.776,51,71.5,51z" />
  </g>
  <g>
    <rect width="23" height="2" x="42" y="52" fill="#472b29" />
  </g>
  <g>
    <path fill="#fdfcef" d="M84.5,68.5c0,0,1.567,0,3.5,0s3.5-1.567,3.5-3.5c0-1.781-1.335-3.234-3.055-3.455 C88.473,61.366,88.5,61.187,88.5,61c0-1.933-1.567-3.5-3.5-3.5c-1.032,0-1.95,0.455-2.59,1.165 c-0.384-1.808-1.987-3.165-3.91-3.165c-2.209,0-4,1.791-4,4c0,0.191,0.03,0.374,0.056,0.558C74.128,59.714,73.592,59.5,73,59.5 c-1.228,0-2.245,0.887-2.455,2.055C70.366,61.527,70.187,61.5,70,61.5c-1.933,0-3.5,1.567-3.5,3.5s1.567,3.5,3.5,3.5s7.5,0,7.5,0 V69h7V68.5z" />
    <path fill="#472b29" d="M86.25,64C86.112,64,86,63.888,86,63.75c0-1.223,0.995-2.218,2.218-2.218 c0.034,0.009,0.737-0.001,1.244,0.136c0.133,0.036,0.212,0.173,0.176,0.306c-0.036,0.134-0.173,0.213-0.306,0.176 c-0.444-0.12-1.1-0.12-1.113-0.118c-0.948,0-1.719,0.771-1.719,1.718C86.5,63.888,86.388,64,86.25,64z" />
    <circle cx="79.5" cy="68.5" r=".5" fill="#472b29" />
    <path fill="#472b29" d="M88,69h-3.5c-0.276,0-0.5-0.224-0.5-0.5s0.224-0.5,0.5-0.5H88c1.654,0,3-1.346,3-3 c0-1.496-1.125-2.768-2.618-2.959c-0.134-0.018-0.255-0.088-0.336-0.196s-0.115-0.244-0.094-0.377C87.975,61.314,88,61.16,88,61 c0-1.654-1.346-3-3-3c-0.85,0-1.638,0.355-2.219,1c-0.125,0.139-0.321,0.198-0.5,0.148c-0.182-0.049-0.321-0.195-0.36-0.379 C81.58,57.165,80.141,56,78.5,56c-1.93,0-3.5,1.57-3.5,3.5c0,0.143,0.021,0.28,0.041,0.418c0.029,0.203-0.063,0.438-0.242,0.54 c-0.179,0.102-0.396,0.118-0.556-0.01C73.878,60.155,73.449,60,73,60c-0.966,0-1.792,0.691-1.963,1.644 c-0.048,0.267-0.296,0.446-0.569,0.405C70.314,62.025,70.16,62,70,62c-1.654,0-3,1.346-3,3s1.346,3,3,3h7.5 c0.276,0,0.5,0.224,0.5,0.5S77.776,69,77.5,69H70c-2.206,0-4-1.794-4-4s1.794-4,4-4c0.059,0,0.116,0.002,0.174,0.006 C70.588,59.82,71.711,59,73,59c0.349,0,0.689,0.061,1.011,0.18C74.176,56.847,76.126,55,78.5,55c1.831,0,3.466,1.127,4.153,2.774 C83.333,57.276,84.155,57,85,57c2.206,0,4,1.794,4,4c0,0.048-0.001,0.095-0.004,0.142C90.739,61.59,92,63.169,92,65 C92,67.206,90.206,69,88,69z" />
    <path fill="#472b29" d="M82.5,68c-0.159,0-0.841,0-1,0c-0.276,0-0.5,0.224-0.5,0.5c0,0.276,0.224,0.5,0.5,0.5 c0.159,0,0.841,0,1,0c0.276,0,0.5-0.224,0.5-0.5C83,68.224,82.776,68,82.5,68z" />
  </g>
</svg>